# xmcd CD database file generated by Grip 2.7
# 
# Track frame offsets:
#       150
#       13290
#       28077
#       40670
#       54172
#       67155
#       82140
#       96387
#       109757
#       121607
#       137280
#       151530
#       165032
#       179885
# 
# Disc length: 2571 seconds
# 
# Revision: 3
# Processed by: cddbd v1.4b41PL1 Copyright (c) Steve Scherf et al.
# Submitted via: Grip 2.7
# 
DISCID=ac0a090e
DTITLE=Muddy Waters - Gold
DYEAR=1900
DGENRE=
TTITLE0=Mannish boy
TTITLE1=Baby please don't go
TTITLE2=Mean mistreater
TTITLE3=Rollin' and tumblin'
TTITLE4=40 days and 40 nights
TTITLE5=Rock me
TTITLE6=One more mile
TTITLE7=Close to you
TTITLE8=Goin' home
TTITLE9=I can't be satisfied
TTITLE10=Rollin' stone
TTITLE11=She moves me
TTITLE12=Walkin' thru the park
TTITLE13=You can't lose what you ain't never had
EXTD=
EXTT0=
EXTT1=
EXTT2=
EXTT3=
EXTT4=
EXTT5=
EXTT6=
EXTT7=
EXTT8=
EXTT9=
EXTT10=
EXTT11=
EXTT12=
EXTT13=
PLAYORDER=
